<mxfile>
    <diagram id="_IPOU0kDqMZAQY4V8elC" name="Page-1">
        <mxGraphModel dx="1374" dy="622" grid="1" gridSize="10" guides="1" tooltips="1" connect="1" arrows="1" fold="1" page="0" pageScale="1" pageWidth="850" pageHeight="1100" background="#000000" math="0" shadow="1">
            <root>
                <mxCell id="0"/>
                <mxCell id="1" parent="0"/>
                <mxCell id="14" value="Rebder Context" style="swimlane;startSize=20;fillColor=#60a917;strokeColor=#2D7600;fontColor=#ffffff;" parent="1" vertex="1">
                    <mxGeometry x="70" y="650" width="640" height="100" as="geometry"/>
                </mxCell>
                <mxCell id="15" value="Vulkan Instance" style="whiteSpace=wrap;html=1;" parent="14" vertex="1">
                    <mxGeometry x="10" y="30" width="120" height="60" as="geometry"/>
                </mxCell>
                <mxCell id="16" value="Physical Device (s)" style="whiteSpace=wrap;html=1;" parent="14" vertex="1">
                    <mxGeometry x="140" y="30" width="120" height="60" as="geometry"/>
                </mxCell>
                <mxCell id="17" value="Logical Device (s)" style="whiteSpace=wrap;html=1;" parent="14" vertex="1">
                    <mxGeometry x="270" y="30" width="120" height="60" as="geometry"/>
                </mxCell>
                <mxCell id="20" value="Session (s)" style="whiteSpace=wrap;html=1;fillColor=#f0a30a;strokeColor=#BD7000;fontColor=#ffffff;" parent="14" vertex="1">
                    <mxGeometry x="400" y="30" width="100" height="60" as="geometry"/>
                </mxCell>
                <mxCell id="42" value="Resource Cache" style="whiteSpace=wrap;html=1;fillColor=#a20025;strokeColor=#6F0000;fontColor=#ffffff;" parent="14" vertex="1">
                    <mxGeometry x="510" y="30" width="110" height="60" as="geometry"/>
                </mxCell>
                <mxCell id="30" value="Render Task" style="swimlane;fillColor=#1ba1e2;strokeColor=#006EAF;fontColor=#ffffff;startSize=20;" parent="1" vertex="1">
                    <mxGeometry x="70" y="350" width="540" height="100" as="geometry"/>
                </mxCell>
                <mxCell id="34" value="Object" style="whiteSpace=wrap;html=1;" parent="30" vertex="1">
                    <mxGeometry x="10" y="30" width="80" height="60" as="geometry"/>
                </mxCell>
                <mxCell id="36" value="Pipelines ptr" style="whiteSpace=wrap;html=1;" parent="30" vertex="1">
                    <mxGeometry x="100" y="30" width="100" height="60" as="geometry"/>
                </mxCell>
                <mxCell id="37" value="Pipeline Layout ptr" style="whiteSpace=wrap;html=1;" parent="30" vertex="1">
                    <mxGeometry x="210" y="30" width="120" height="60" as="geometry"/>
                </mxCell>
                <mxCell id="35" value="Render Passes ptr" style="whiteSpace=wrap;html=1;" parent="30" vertex="1">
                    <mxGeometry x="340" y="30" width="110" height="60" as="geometry"/>
                </mxCell>
                <mxCell id="21" value="Render Session" style="swimlane;fillColor=#f0a30a;strokeColor=#BD7000;fontColor=#ffffff;startSize=20;" parent="1" vertex="1">
                    <mxGeometry x="70" y="500" width="530" height="100" as="geometry"/>
                </mxCell>
                <mxCell id="22" value="Surface" style="whiteSpace=wrap;html=1;" parent="21" vertex="1">
                    <mxGeometry x="10" y="30" width="80" height="60" as="geometry"/>
                </mxCell>
                <mxCell id="24" value="Window" style="whiteSpace=wrap;html=1;" parent="21" vertex="1">
                    <mxGeometry x="100" y="30" width="80" height="60" as="geometry"/>
                </mxCell>
                <mxCell id="26" value="Swapchain" style="whiteSpace=wrap;html=1;" parent="21" vertex="1">
                    <mxGeometry x="190" y="30" width="80" height="60" as="geometry"/>
                </mxCell>
                <mxCell id="27" value="Tasks" style="whiteSpace=wrap;html=1;fillColor=#1ba1e2;strokeColor=#006EAF;fontColor=#ffffff;" parent="21" vertex="1">
                    <mxGeometry x="280" y="30" width="80" height="60" as="geometry"/>
                </mxCell>
                <mxCell id="28" value="Gui" style="whiteSpace=wrap;html=1;" parent="21" vertex="1">
                    <mxGeometry x="370" y="30" width="70" height="60" as="geometry"/>
                </mxCell>
                <mxCell id="39" value="Scene" style="whiteSpace=wrap;html=1;" parent="21" vertex="1">
                    <mxGeometry x="450" y="30" width="70" height="60" as="geometry"/>
                </mxCell>
                <mxCell id="33" style="edgeStyle=orthogonalEdgeStyle;rounded=0;orthogonalLoop=1;jettySize=auto;html=1;entryX=0.5;entryY=1;entryDx=0;entryDy=0;" parent="1" source="20" target="21" edge="1">
                    <mxGeometry relative="1" as="geometry"/>
                </mxCell>
                <mxCell id="40" style="edgeStyle=orthogonalEdgeStyle;rounded=0;orthogonalLoop=1;jettySize=auto;html=1;entryX=0.5;entryY=1;entryDx=0;entryDy=0;" parent="1" source="27" target="30" edge="1">
                    <mxGeometry relative="1" as="geometry"/>
                </mxCell>
                <mxCell id="43" value="Resource Cache" style="swimlane;startSize=20;fillColor=#a20025;strokeColor=#6F0000;fontColor=#ffffff;" parent="1" vertex="1">
                    <mxGeometry x="620" y="760" width="640" height="100" as="geometry"/>
                </mxCell>
                <mxCell id="44" value="Pipeline" style="whiteSpace=wrap;html=1;" parent="43" vertex="1">
                    <mxGeometry x="10" y="30" width="60" height="60" as="geometry"/>
                </mxCell>
                <mxCell id="46" value="Pipeline Layout" style="whiteSpace=wrap;html=1;" parent="43" vertex="1">
                    <mxGeometry x="80" y="30" width="70" height="60" as="geometry"/>
                </mxCell>
                <mxCell id="47" value="Descriptor pool" style="whiteSpace=wrap;html=1;" parent="43" vertex="1">
                    <mxGeometry x="160" y="30" width="80" height="60" as="geometry"/>
                </mxCell>
                <mxCell id="48" value="Descriptor set" style="whiteSpace=wrap;html=1;" parent="43" vertex="1">
                    <mxGeometry x="250" y="30" width="70" height="60" as="geometry"/>
                </mxCell>
                <mxCell id="49" value="Descriptor set Layout&amp;nbsp;" style="whiteSpace=wrap;html=1;" parent="43" vertex="1">
                    <mxGeometry x="330" y="30" width="80" height="60" as="geometry"/>
                </mxCell>
                <mxCell id="50" value="Framebuffer" style="whiteSpace=wrap;html=1;" parent="43" vertex="1">
                    <mxGeometry x="420" y="30" width="90" height="60" as="geometry"/>
                </mxCell>
                <mxCell id="51" value="Render Pass" style="whiteSpace=wrap;html=1;" parent="43" vertex="1">
                    <mxGeometry x="520" y="30" width="110" height="60" as="geometry"/>
                </mxCell>
                <mxCell id="54" style="edgeStyle=orthogonalEdgeStyle;rounded=0;orthogonalLoop=1;jettySize=auto;html=1;entryX=0.5;entryY=1;entryDx=0;entryDy=0;" parent="1" source="42" target="43" edge="1">
                    <mxGeometry relative="1" as="geometry">
                        <Array as="points">
                            <mxPoint x="635" y="620"/>
                            <mxPoint x="970" y="620"/>
                        </Array>
                    </mxGeometry>
                </mxCell>
                <mxCell id="56" value="" style="rounded=1;whiteSpace=wrap;html=1;" vertex="1" parent="1">
                    <mxGeometry x="170" y="1470" width="510" height="220" as="geometry"/>
                </mxCell>
                <mxCell id="57" value="RenderContext" style="text;html=1;strokeColor=none;fillColor=none;align=center;verticalAlign=middle;whiteSpace=wrap;rounded=0;" vertex="1" parent="1">
                    <mxGeometry x="209" y="1490" width="40" height="20" as="geometry"/>
                </mxCell>
                <mxCell id="72" style="edgeStyle=orthogonalEdgeStyle;rounded=0;orthogonalLoop=1;jettySize=auto;html=1;exitX=1;exitY=0.5;exitDx=0;exitDy=0;entryX=0;entryY=0.5;entryDx=0;entryDy=0;" edge="1" parent="1" source="59" target="67">
                    <mxGeometry relative="1" as="geometry"/>
                </mxCell>
                <mxCell id="59" value="" style="rounded=1;whiteSpace=wrap;html=1;" vertex="1" parent="1">
                    <mxGeometry x="310" y="1920" width="350" height="110" as="geometry"/>
                </mxCell>
                <mxCell id="61" value="RenderPipeline" style="text;html=1;strokeColor=none;fillColor=none;align=center;verticalAlign=middle;whiteSpace=wrap;rounded=0;" vertex="1" parent="1">
                    <mxGeometry x="440" y="2047.5" width="40" height="20" as="geometry"/>
                </mxCell>
                <mxCell id="101" style="edgeStyle=orthogonalEdgeStyle;rounded=0;orthogonalLoop=1;jettySize=auto;html=1;exitX=1;exitY=0.5;exitDx=0;exitDy=0;entryX=0;entryY=0.5;entryDx=0;entryDy=0;" edge="1" parent="1" source="62" target="63">
                    <mxGeometry relative="1" as="geometry">
                        <Array as="points">
                            <mxPoint x="470" y="1975"/>
                        </Array>
                    </mxGeometry>
                </mxCell>
                <mxCell id="62" value="Subpass 1" style="rounded=0;whiteSpace=wrap;html=1;" vertex="1" parent="1">
                    <mxGeometry x="330" y="1942.5" width="120" height="65" as="geometry"/>
                </mxCell>
                <mxCell id="63" value="Subpass 2" style="rounded=0;whiteSpace=wrap;html=1;" vertex="1" parent="1">
                    <mxGeometry x="470" y="1942.5" width="120" height="65" as="geometry"/>
                </mxCell>
                <mxCell id="64" value="..." style="text;html=1;strokeColor=none;fillColor=none;align=center;verticalAlign=middle;whiteSpace=wrap;rounded=0;" vertex="1" parent="1">
                    <mxGeometry x="625" y="1961" width="40" height="20" as="geometry"/>
                </mxCell>
                <mxCell id="71" style="edgeStyle=orthogonalEdgeStyle;rounded=0;orthogonalLoop=1;jettySize=auto;html=1;exitX=1;exitY=0.5;exitDx=0;exitDy=0;" edge="1" parent="1" source="65" target="59">
                    <mxGeometry relative="1" as="geometry"/>
                </mxCell>
                <mxCell id="65" value="Scene Graph" style="rounded=1;whiteSpace=wrap;html=1;" vertex="1" parent="1">
                    <mxGeometry x="120" y="1945" width="120" height="60" as="geometry"/>
                </mxCell>
                <mxCell id="75" style="edgeStyle=orthogonalEdgeStyle;rounded=0;orthogonalLoop=1;jettySize=auto;html=1;exitX=0.5;exitY=0;exitDx=0;exitDy=0;entryX=0.5;entryY=0;entryDx=0;entryDy=0;" edge="1" parent="1" source="67" target="62">
                    <mxGeometry relative="1" as="geometry">
                        <Array as="points">
                            <mxPoint x="800" y="1945"/>
                            <mxPoint x="800" y="1880"/>
                            <mxPoint x="390" y="1880"/>
                        </Array>
                    </mxGeometry>
                </mxCell>
                <mxCell id="106" style="edgeStyle=orthogonalEdgeStyle;rounded=0;orthogonalLoop=1;jettySize=auto;html=1;exitX=0.25;exitY=0;exitDx=0;exitDy=0;entryX=0.5;entryY=0;entryDx=0;entryDy=0;" edge="1" parent="1" source="67" target="63">
                    <mxGeometry relative="1" as="geometry">
                        <Array as="points">
                            <mxPoint x="800" y="1945"/>
                            <mxPoint x="800" y="1880"/>
                            <mxPoint x="530" y="1880"/>
                        </Array>
                    </mxGeometry>
                </mxCell>
                <mxCell id="67" value="" style="rounded=1;whiteSpace=wrap;html=1;" vertex="1" parent="1">
                    <mxGeometry x="740" y="1945" width="210" height="60" as="geometry"/>
                </mxCell>
                <mxCell id="77" value="RenderTarget" style="text;html=1;align=center;verticalAlign=middle;resizable=0;points=[];autosize=1;" vertex="1" parent="1">
                    <mxGeometry x="800" y="2030" width="90" height="20" as="geometry"/>
                </mxCell>
                <mxCell id="79" value="ImageView 0" style="rounded=0;whiteSpace=wrap;html=1;" vertex="1" parent="1">
                    <mxGeometry x="750" y="1955" width="80" height="40" as="geometry"/>
                </mxCell>
                <mxCell id="80" value="ImageView 1" style="rounded=0;whiteSpace=wrap;html=1;" vertex="1" parent="1">
                    <mxGeometry x="840" y="1955" width="80" height="40" as="geometry"/>
                </mxCell>
                <mxCell id="96" style="edgeStyle=orthogonalEdgeStyle;rounded=0;orthogonalLoop=1;jettySize=auto;html=1;entryX=0;entryY=0.5;entryDx=0;entryDy=0;" edge="1" parent="1" source="81" target="93">
                    <mxGeometry relative="1" as="geometry"/>
                </mxCell>
                <mxCell id="97" style="edgeStyle=orthogonalEdgeStyle;rounded=0;orthogonalLoop=1;jettySize=auto;html=1;exitX=1;exitY=0.5;exitDx=0;exitDy=0;entryX=0;entryY=0.5;entryDx=0;entryDy=0;" edge="1" parent="1" source="81" target="94">
                    <mxGeometry relative="1" as="geometry"/>
                </mxCell>
                <mxCell id="98" style="edgeStyle=orthogonalEdgeStyle;rounded=0;orthogonalLoop=1;jettySize=auto;html=1;exitX=1;exitY=0.5;exitDx=0;exitDy=0;entryX=0;entryY=0.5;entryDx=0;entryDy=0;" edge="1" parent="1" source="81" target="95">
                    <mxGeometry relative="1" as="geometry"/>
                </mxCell>
                <mxCell id="81" value="Subpass 0" style="rounded=1;whiteSpace=wrap;html=1;" vertex="1" parent="1">
                    <mxGeometry x="405" y="2160" width="210" height="110" as="geometry"/>
                </mxCell>
                <mxCell id="87" style="edgeStyle=orthogonalEdgeStyle;rounded=0;orthogonalLoop=1;jettySize=auto;html=1;entryX=0;entryY=0.5;entryDx=0;entryDy=0;" edge="1" parent="1" source="83" target="81">
                    <mxGeometry relative="1" as="geometry">
                        <mxPoint x="325" y="2170" as="targetPoint"/>
                    </mxGeometry>
                </mxCell>
                <mxCell id="83" value="Attachment 0" style="rounded=0;whiteSpace=wrap;html=1;" vertex="1" parent="1">
                    <mxGeometry x="95" y="2180" width="100" height="40" as="geometry"/>
                </mxCell>
                <mxCell id="90" style="edgeStyle=orthogonalEdgeStyle;rounded=0;orthogonalLoop=1;jettySize=auto;html=1;entryX=0;entryY=0.5;entryDx=0;entryDy=0;" edge="1" parent="1" source="84" target="81">
                    <mxGeometry relative="1" as="geometry"/>
                </mxCell>
                <mxCell id="84" value="Attachment 1" style="rounded=0;whiteSpace=wrap;html=1;" vertex="1" parent="1">
                    <mxGeometry x="95" y="2230" width="100" height="40" as="geometry"/>
                </mxCell>
                <mxCell id="89" style="edgeStyle=orthogonalEdgeStyle;rounded=0;orthogonalLoop=1;jettySize=auto;html=1;entryX=0;entryY=0.5;entryDx=0;entryDy=0;" edge="1" parent="1" source="85" target="81">
                    <mxGeometry relative="1" as="geometry"/>
                </mxCell>
                <mxCell id="85" value="Attachment 2" style="rounded=0;whiteSpace=wrap;html=1;" vertex="1" parent="1">
                    <mxGeometry x="95" y="2280" width="100" height="40" as="geometry"/>
                </mxCell>
                <mxCell id="86" value="..." style="text;html=1;strokeColor=none;fillColor=none;align=center;verticalAlign=middle;whiteSpace=wrap;rounded=0;" vertex="1" parent="1">
                    <mxGeometry x="125" y="2330" width="40" height="20" as="geometry"/>
                </mxCell>
                <mxCell id="92" style="edgeStyle=orthogonalEdgeStyle;rounded=0;orthogonalLoop=1;jettySize=auto;html=1;" edge="1" parent="1" source="91" target="81">
                    <mxGeometry relative="1" as="geometry"/>
                </mxCell>
                <mxCell id="91" value="Scene Graph" style="rounded=1;whiteSpace=wrap;html=1;" vertex="1" parent="1">
                    <mxGeometry x="450" y="2310" width="120" height="60" as="geometry"/>
                </mxCell>
                <mxCell id="93" value="Attachment o0" style="rounded=0;whiteSpace=wrap;html=1;" vertex="1" parent="1">
                    <mxGeometry x="775" y="2180" width="100" height="40" as="geometry"/>
                </mxCell>
                <mxCell id="94" value="Attachment o1" style="rounded=0;whiteSpace=wrap;html=1;" vertex="1" parent="1">
                    <mxGeometry x="775" y="2230" width="100" height="40" as="geometry"/>
                </mxCell>
                <mxCell id="95" value="Attachment o2" style="rounded=0;whiteSpace=wrap;html=1;" vertex="1" parent="1">
                    <mxGeometry x="775" y="2280" width="100" height="40" as="geometry"/>
                </mxCell>
                <mxCell id="99" value="..." style="text;html=1;strokeColor=none;fillColor=none;align=center;verticalAlign=middle;whiteSpace=wrap;rounded=0;" vertex="1" parent="1">
                    <mxGeometry x="805" y="2328" width="40" height="20" as="geometry"/>
                </mxCell>
                <mxCell id="107" value="" style="rounded=1;whiteSpace=wrap;html=1;" vertex="1" parent="1">
                    <mxGeometry x="140" y="2560" width="120" height="160" as="geometry"/>
                </mxCell>
                <mxCell id="108" value="Frame 0" style="rounded=0;whiteSpace=wrap;html=1;" vertex="1" parent="1">
                    <mxGeometry x="330" y="2530" width="120" height="60" as="geometry"/>
                </mxCell>
                <mxCell id="109" value="Frame 1" style="rounded=0;whiteSpace=wrap;html=1;" vertex="1" parent="1">
                    <mxGeometry x="330" y="2610" width="120" height="60" as="geometry"/>
                </mxCell>
                <mxCell id="110" value="Frame 2" style="rounded=0;whiteSpace=wrap;html=1;" vertex="1" parent="1">
                    <mxGeometry x="330" y="2690" width="120" height="60" as="geometry"/>
                </mxCell>
                <mxCell id="111" value="..." style="text;html=1;strokeColor=none;fillColor=none;align=center;verticalAlign=middle;whiteSpace=wrap;rounded=0;" vertex="1" parent="1">
                    <mxGeometry x="370" y="2760" width="40" height="20" as="geometry"/>
                </mxCell>
                <mxCell id="115" style="edgeStyle=orthogonalEdgeStyle;rounded=0;orthogonalLoop=1;jettySize=auto;html=1;exitX=0.5;exitY=0;exitDx=0;exitDy=0;entryX=0.5;entryY=0;entryDx=0;entryDy=0;" edge="1" parent="1" source="112" target="113">
                    <mxGeometry relative="1" as="geometry"/>
                </mxCell>
                <mxCell id="112" value="Render&lt;br&gt;Session" style="rounded=1;whiteSpace=wrap;html=1;" vertex="1" parent="1">
                    <mxGeometry x="660" y="2610" width="120" height="70" as="geometry"/>
                </mxCell>
                <mxCell id="121" style="edgeStyle=orthogonalEdgeStyle;rounded=0;orthogonalLoop=1;jettySize=auto;html=1;exitX=0.5;exitY=1;exitDx=0;exitDy=0;entryX=0.105;entryY=-0.029;entryDx=0;entryDy=0;entryPerimeter=0;" edge="1" parent="1" source="113" target="117">
                    <mxGeometry relative="1" as="geometry"/>
                </mxCell>
                <mxCell id="113" value="Frame N" style="rounded=0;whiteSpace=wrap;html=1;" vertex="1" parent="1">
                    <mxGeometry x="850" y="2560" width="70" height="30" as="geometry"/>
                </mxCell>
                <mxCell id="116" value="Next Frame" style="text;html=1;align=center;verticalAlign=middle;resizable=0;points=[];autosize=1;" vertex="1" parent="1">
                    <mxGeometry x="770" y="2520" width="80" height="20" as="geometry"/>
                </mxCell>
                <mxCell id="117" value="&amp;nbsp; Render Pipeline" style="rounded=1;whiteSpace=wrap;html=1;align=left;" vertex="1" parent="1">
                    <mxGeometry x="850" y="2627.5" width="305" height="35" as="geometry"/>
                </mxCell>
                <mxCell id="118" value="" style="rounded=0;whiteSpace=wrap;html=1;" vertex="1" parent="1">
                    <mxGeometry x="955" y="2635" width="60" height="20" as="geometry"/>
                </mxCell>
                <mxCell id="119" value="" style="rounded=0;whiteSpace=wrap;html=1;" vertex="1" parent="1">
                    <mxGeometry x="1025" y="2635" width="60" height="20" as="geometry"/>
                </mxCell>
                <mxCell id="120" value="..." style="text;html=1;strokeColor=none;fillColor=none;align=center;verticalAlign=middle;whiteSpace=wrap;rounded=0;" vertex="1" parent="1">
                    <mxGeometry x="1095" y="2635" width="40" height="20" as="geometry"/>
                </mxCell>
                <mxCell id="125" style="edgeStyle=orthogonalEdgeStyle;rounded=0;orthogonalLoop=1;jettySize=auto;html=1;entryX=0.5;entryY=1;entryDx=0;entryDy=0;" edge="1" parent="1" source="122" target="112">
                    <mxGeometry relative="1" as="geometry"/>
                </mxCell>
                <mxCell id="122" value="&amp;nbsp; &amp;nbsp;Frame N -&amp;gt; Present" style="rounded=1;whiteSpace=wrap;html=1;align=left;" vertex="1" parent="1">
                    <mxGeometry x="850" y="2700" width="140" height="30" as="geometry"/>
                </mxCell>
                <mxCell id="123" value="" style="endArrow=classic;html=1;entryX=0.25;entryY=0;entryDx=0;entryDy=0;exitX=0.115;exitY=0.986;exitDx=0;exitDy=0;exitPerimeter=0;" edge="1" parent="1" source="117" target="122">
                    <mxGeometry width="50" height="50" relative="1" as="geometry">
                        <mxPoint x="730" y="2800" as="sourcePoint"/>
                        <mxPoint x="780" y="2750" as="targetPoint"/>
                    </mxGeometry>
                </mxCell>
            </root>
        </mxGraphModel>
    </diagram>
</mxfile>